<mxfile host="app.diagrams.net" agent="Mozilla/5.0 (X11; Linux x86_64; rv:138.0) Gecko/20100101 Firefox/138.0" version="27.1.6">
  <diagram name="Page-1" id="C0rGnqfpa_Yh3Av4k9ok">
    <mxGraphModel dx="1042" dy="592" grid="1" gridSize="10" guides="1" tooltips="1" connect="1" arrows="1" fold="1" page="1" pageScale="1" pageWidth="850" pageHeight="1100" math="0" shadow="0">
      <root>
        <mxCell id="0" />
        <mxCell id="1" parent="0" />
        <mxCell id="4pjC3Ya1oHnJUbMeKMqa-1" value="&lt;div&gt;Quizzen starter&lt;/div&gt;" style="rounded=0;whiteSpace=wrap;html=1;" vertex="1" parent="1">
          <mxGeometry x="360" y="40" width="120" height="60" as="geometry" />
        </mxCell>
        <mxCell id="4pjC3Ya1oHnJUbMeKMqa-2" value="&lt;div&gt;Vælg spørgsmål&lt;/div&gt;" style="rounded=0;whiteSpace=wrap;html=1;" vertex="1" parent="1">
          <mxGeometry x="360" y="140" width="120" height="60" as="geometry" />
        </mxCell>
        <mxCell id="4pjC3Ya1oHnJUbMeKMqa-3" value="Vis spørgsmål i GUI" style="rounded=0;whiteSpace=wrap;html=1;" vertex="1" parent="1">
          <mxGeometry x="280" y="240" width="120" height="60" as="geometry" />
        </mxCell>
        <mxCell id="4pjC3Ya1oHnJUbMeKMqa-4" value="Modtag brugerens svar" style="rounded=0;whiteSpace=wrap;html=1;" vertex="1" parent="1">
          <mxGeometry x="440" y="240" width="120" height="60" as="geometry" />
        </mxCell>
        <mxCell id="4pjC3Ya1oHnJUbMeKMqa-5" value="" style="endArrow=classic;html=1;rounded=0;" edge="1" parent="1" source="4pjC3Ya1oHnJUbMeKMqa-1" target="4pjC3Ya1oHnJUbMeKMqa-2">
          <mxGeometry width="50" height="50" relative="1" as="geometry">
            <mxPoint x="400" y="340" as="sourcePoint" />
            <mxPoint x="450" y="290" as="targetPoint" />
          </mxGeometry>
        </mxCell>
        <mxCell id="4pjC3Ya1oHnJUbMeKMqa-7" value="" style="endArrow=classic;html=1;rounded=0;" edge="1" parent="1" source="4pjC3Ya1oHnJUbMeKMqa-3" target="4pjC3Ya1oHnJUbMeKMqa-4">
          <mxGeometry width="50" height="50" relative="1" as="geometry">
            <mxPoint x="400" y="340" as="sourcePoint" />
            <mxPoint x="450" y="290" as="targetPoint" />
          </mxGeometry>
        </mxCell>
        <mxCell id="4pjC3Ya1oHnJUbMeKMqa-8" value="" style="endArrow=classic;html=1;rounded=0;" edge="1" parent="1" source="4pjC3Ya1oHnJUbMeKMqa-2" target="4pjC3Ya1oHnJUbMeKMqa-3">
          <mxGeometry width="50" height="50" relative="1" as="geometry">
            <mxPoint x="400" y="340" as="sourcePoint" />
            <mxPoint x="450" y="290" as="targetPoint" />
          </mxGeometry>
        </mxCell>
        <mxCell id="4pjC3Ya1oHnJUbMeKMqa-10" value="Behandl svar" style="rhombus;whiteSpace=wrap;html=1;" vertex="1" parent="1">
          <mxGeometry x="460" y="330" width="80" height="80" as="geometry" />
        </mxCell>
        <mxCell id="4pjC3Ya1oHnJUbMeKMqa-13" value="" style="endArrow=classic;html=1;rounded=0;entryX=0.5;entryY=0;entryDx=0;entryDy=0;" edge="1" parent="1" source="4pjC3Ya1oHnJUbMeKMqa-4" target="4pjC3Ya1oHnJUbMeKMqa-10">
          <mxGeometry width="50" height="50" relative="1" as="geometry">
            <mxPoint x="400" y="340" as="sourcePoint" />
            <mxPoint x="450" y="290" as="targetPoint" />
          </mxGeometry>
        </mxCell>
        <mxCell id="4pjC3Ya1oHnJUbMeKMqa-14" value="Formindsk vægt for spørgsmålets tags" style="rounded=0;whiteSpace=wrap;html=1;" vertex="1" parent="1">
          <mxGeometry x="280" y="340" width="120" height="60" as="geometry" />
        </mxCell>
        <mxCell id="4pjC3Ya1oHnJUbMeKMqa-15" value="Rigtigt" style="endArrow=classic;html=1;rounded=0;exitX=0;exitY=0.5;exitDx=0;exitDy=0;entryX=1;entryY=0.5;entryDx=0;entryDy=0;" edge="1" parent="1" source="4pjC3Ya1oHnJUbMeKMqa-10" target="4pjC3Ya1oHnJUbMeKMqa-14">
          <mxGeometry width="50" height="50" relative="1" as="geometry">
            <mxPoint x="400" y="430" as="sourcePoint" />
            <mxPoint x="350" y="440" as="targetPoint" />
          </mxGeometry>
        </mxCell>
        <mxCell id="4pjC3Ya1oHnJUbMeKMqa-16" value="Forkert" style="endArrow=classic;html=1;rounded=0;exitX=0.5;exitY=1;exitDx=0;exitDy=0;" edge="1" parent="1" source="4pjC3Ya1oHnJUbMeKMqa-10" target="4pjC3Ya1oHnJUbMeKMqa-17">
          <mxGeometry width="50" height="50" relative="1" as="geometry">
            <mxPoint x="400" y="430" as="sourcePoint" />
            <mxPoint x="480" y="440" as="targetPoint" />
          </mxGeometry>
        </mxCell>
        <mxCell id="4pjC3Ya1oHnJUbMeKMqa-17" value="Forøg vægt for spørgsmålets tags" style="rounded=0;whiteSpace=wrap;html=1;" vertex="1" parent="1">
          <mxGeometry x="440" y="440" width="120" height="60" as="geometry" />
        </mxCell>
        <mxCell id="4pjC3Ya1oHnJUbMeKMqa-19" value="Fjern spørgsmål fra pulje" style="rounded=0;whiteSpace=wrap;html=1;" vertex="1" parent="1">
          <mxGeometry x="280" y="440" width="120" height="60" as="geometry" />
        </mxCell>
        <mxCell id="4pjC3Ya1oHnJUbMeKMqa-20" value="" style="endArrow=classic;html=1;rounded=0;" edge="1" parent="1" source="4pjC3Ya1oHnJUbMeKMqa-14" target="4pjC3Ya1oHnJUbMeKMqa-19">
          <mxGeometry width="50" height="50" relative="1" as="geometry">
            <mxPoint x="400" y="430" as="sourcePoint" />
            <mxPoint x="450" y="380" as="targetPoint" />
          </mxGeometry>
        </mxCell>
        <mxCell id="4pjC3Ya1oHnJUbMeKMqa-21" value="Flere spørgsmål?" style="rhombus;whiteSpace=wrap;html=1;" vertex="1" parent="1">
          <mxGeometry x="380" y="530" width="80" height="80" as="geometry" />
        </mxCell>
        <mxCell id="4pjC3Ya1oHnJUbMeKMqa-22" value="" style="endArrow=classic;html=1;rounded=0;" edge="1" parent="1" source="4pjC3Ya1oHnJUbMeKMqa-17" target="4pjC3Ya1oHnJUbMeKMqa-21">
          <mxGeometry width="50" height="50" relative="1" as="geometry">
            <mxPoint x="400" y="440" as="sourcePoint" />
            <mxPoint x="450" y="390" as="targetPoint" />
          </mxGeometry>
        </mxCell>
        <mxCell id="4pjC3Ya1oHnJUbMeKMqa-23" value="" style="endArrow=classic;html=1;rounded=0;" edge="1" parent="1" source="4pjC3Ya1oHnJUbMeKMqa-19" target="4pjC3Ya1oHnJUbMeKMqa-21">
          <mxGeometry width="50" height="50" relative="1" as="geometry">
            <mxPoint x="400" y="440" as="sourcePoint" />
            <mxPoint x="450" y="390" as="targetPoint" />
          </mxGeometry>
        </mxCell>
        <mxCell id="4pjC3Ya1oHnJUbMeKMqa-24" value="Ja" style="endArrow=classic;html=1;rounded=0;exitX=1;exitY=0.5;exitDx=0;exitDy=0;entryX=1;entryY=0.5;entryDx=0;entryDy=0;" edge="1" parent="1" source="4pjC3Ya1oHnJUbMeKMqa-21" target="4pjC3Ya1oHnJUbMeKMqa-2">
          <mxGeometry width="50" height="50" relative="1" as="geometry">
            <mxPoint x="400" y="500" as="sourcePoint" />
            <mxPoint x="650" y="220" as="targetPoint" />
            <Array as="points">
              <mxPoint x="600" y="570" />
              <mxPoint x="600" y="170" />
            </Array>
          </mxGeometry>
        </mxCell>
        <mxCell id="4pjC3Ya1oHnJUbMeKMqa-25" value="Nej" style="endArrow=classic;html=1;rounded=0;" edge="1" parent="1" source="4pjC3Ya1oHnJUbMeKMqa-21" target="4pjC3Ya1oHnJUbMeKMqa-26">
          <mxGeometry width="50" height="50" relative="1" as="geometry">
            <mxPoint x="400" y="500" as="sourcePoint" />
            <mxPoint x="450" y="450" as="targetPoint" />
          </mxGeometry>
        </mxCell>
        <mxCell id="4pjC3Ya1oHnJUbMeKMqa-26" value="&lt;div&gt;Afslut quiz&lt;/div&gt;" style="rounded=0;whiteSpace=wrap;html=1;" vertex="1" parent="1">
          <mxGeometry x="360" y="640" width="120" height="60" as="geometry" />
        </mxCell>
      </root>
    </mxGraphModel>
  </diagram>
</mxfile>
